{
  "accessors": [
    {
      "bufferView": 2,
      "componentType": 5126,
      "count": 469,
      "max": [
        1.9679479598999023,
        1.0733020305633545,
        0.19763338565826416
      ],
      "min": [
        -1.9808087348937988,
        -1.4176768064498901,
        -1.0001403093338013
      ],
      "type": "VEC3"
    },
    {
      "bufferView": 2,
      "byteOffset": 5628,
      "componentType": 5126,
      "count": 469,
      "max": [
        1.0,
        1.0,
        1.0
      ],
      "min": [
        -1.0,
        -1.0,
        -1.0
      ],
      "type": "VEC3"
    },
    {
      "bufferView": 1,
      "componentType": 5126,
      "count": 469,
      "max": [
        0.9479150772094727,
        0.8448411226272583
      ],
      "min": [
        0.32198530435562134,
        0.01029874011874199
      ],
      "type": "VEC2"
    },
    {
      "bufferView": 0,
      "componentType": 5125,
      "count": 1128,
      "type": "SCALAR"
    },
    {
      "bufferView": 2,
      "byteOffset": 11256,
      "componentType": 5126,
      "count": 186,
      "max": [
        1.7947529554367065,
        0.9689104557037354,
        0.18390855193138123
      ],
      "min": [
        -1.8118125200271606,
        -1.3744862079620361,
        -1.0044221878051758
      ],
      "type": "VEC3"
    },
    {
      "bufferView": 2,
      "byteOffset": 13488,
      "componentType": 5126,
      "count": 186,
      "max": [
        0.9999859929084778,
        1.0,
        1.0
      ],
      "min": [
        -0.9999859929084778,
        -1.0,
        -1.0
      ],
      "type": "VEC3"
    },
    {
      "bufferView": 1,
      "byteOffset": 3752,
      "componentType": 5126,
      "count": 186,
      "max": [
        0.9952629804611206,
        0.9856176376342773
      ],
      "min": [
        0.0006106548826210201,
        0.1954103708267212
      ],
      "type": "VEC2"
    },
    {
      "bufferView": 0,
      "byteOffset": 4512,
      "componentType": 5125,
      "count": 288,
      "type": "SCALAR"
    },
    {
      "bufferView": 2,
      "byteOffset": 15720,
      "componentType": 5126,
      "count": 436,
      "max": [
        1.3184734582901,
        0.14478862285614014,
        1.0319204330444336
      ],
      "min": [
        -1.278304934501648,
        -2.420255422592163,
        -0.21447932720184326
      ],
      "type": "VEC3"
    },
    {
      "bufferView": 2,
      "byteOffset": 20952,
      "componentType": 5126,
      "count": 436,
      "max": [
        0.9998661875724792,
        1.0,
        1.0
      ],
      "min": [
        -0.9998661875724792,
        -1.0,
        -0.9999473690986633
      ],
      "type": "VEC3"
    },
    {
      "bufferView": 1,
      "byteOffset": 5240,
      "componentType": 5126,
      "count": 436,
      "max": [
        0.879483699798584,
        0.9913585186004639
      ],
      "min": [
        0.009776361286640167,
        0.003806788008660078
      ],
      "type": "VEC2"
    },
    {
      "bufferView": 0,
      "byteOffset": 5664,
      "componentType": 5125,
      "count": 840,
      "type": "SCALAR"
    },
    {
      "bufferView": 2,
      "byteOffset": 26184,
      "componentType": 5126,
      "count": 246,
      "max": [
        1.7980552911758423,
        0.04781961441040039,
        1.0146640539169312
      ],
      "min": [
        -1.7734589576721191,
        -2.387049674987793,
        -0.2144012451171875
      ],
      "type": "VEC3"
    },
    {
      "bufferView": 2,
      "byteOffset": 29136,
      "componentType": 5126,
      "count": 246,
      "max": [
        0.9999933838844299,
        0.9999997019767761,
        0.9998311996459961
      ],
      "min": [
        -0.9999933838844299,
        -0.999991238117218,
        -0.9999846816062927
      ],
      "type": "VEC3"
    },
    {
      "bufferView": 1,
      "byteOffset": 8728,
      "componentType": 5126,
      "count": 246,
      "max": [
        0.9899489879608154,
        0.8564445972442627
      ],
      "min": [
        0.0006106548826210201,
        0.0006106548826210201
      ],
      "type": "VEC2"
    },
    {
      "bufferView": 0,
      "byteOffset": 9024,
      "componentType": 5125,
      "count": 384,
      "type": "SCALAR"
    },
    {
      "bufferView": 3,
      "componentType": 5126,
      "count": 60,
      "max": [
        1.9666666984558105
      ],
      "min": [
        0.0
      ],
      "type": "SCALAR"
    },
    {
      "bufferView": 4,
      "componentType": 5126,
      "count": 60,
      "max": [
        0.919319212436676,
        3.8352521199174936e-19,
        2.1709076002997475e-19,
        0.7071067094802856
      ],
      "min": [
        -0.8658996820449829,
        -4.0706478182165957e-19,
        -3.1221061096231435e-19,
        -0.4924289584159851
      ],
      "type": "VEC4"
    }
  ],
  "animations": [
    {
      "channels": [
        {
          "sampler": 0,
          "target": {
            "node": 7,
            "path": "rotation"
          }
        }
      ],
      "name": "ChestOpen",
      "samplers": [
        {
          "input": 16,
          "interpolation": "LINEAR",
          "output": 17
        }
      ]
    }
  ],
  "asset": {
    "extras": {
      "author": "TridentCorp (https://sketchfab.com/tridentcorp)",
      "license": "CC-BY-4.0 (http://creativecommons.org/licenses/by/4.0/)",
      "source": "https://sketchfab.com/3d-models/old-chest-201b556f0771442a95716cab046a1ee6",
      "title": "Old Chest"
    },
    "generator": "Sketchfab-13.97.0",
    "version": "2.0"
  },
  "bufferViews": [
    {
      "buffer": 0,
      "byteLength": 10560,
      "name": "floatBufferViews",
      "target": 34963
    },
    {
      "buffer": 0,
      "byteLength": 10696,
      "byteOffset": 10560,
      "byteStride": 8,
      "name": "floatBufferViews",
      "target": 34962
    },
    {
      "buffer": 0,
      "byteLength": 32088,
      "byteOffset": 21256,
      "byteStride": 12,
      "name": "floatBufferViews",
      "target": 34962
    },
    {
      "buffer": 0,
      "byteLength": 240,
      "byteOffset": 53344,
      "name": "floatBufferViews"
    },
    {
      "buffer": 0,
      "byteLength": 960,
      "byteOffset": 53584,
      "byteStride": 16,
      "name": "floatBufferViews"
    }
  ],
  "buffers": [
    {
      "byteLength": 54544,
      "uri": "scene.bin"
    }
  ],
  "images": [
    {
      "uri": "textures/chest_Metal_baseColor.png"
    }
  ],
  "materials": [
    {
      "doubleSided": true,
      "name": "chest_Metal",
      "pbrMetallicRoughness": {
        "baseColorTexture": {
          "index": 0
        },
        "metallicFactor": 0.0,
        "roughnessFactor": 0.7989120770572431
      }
    },
    {
      "doubleSided": true,
      "name": "chest_wood",
      "pbrMetallicRoughness": {
        "baseColorTexture": {
          "index": 0
        },
        "metallicFactor": 0.0,
        "roughnessFactor": 0.9548739886109466
      }
    }
  ],
  "meshes": [
    {
      "name": "chest _chest Metal_0",
      "primitives": [
        {
          "attributes": {
            "NORMAL": 1,
            "POSITION": 0,
            "TEXCOORD_0": 2
          },
          "indices": 3,
          "material": 0,
          "mode": 4
        }
      ]
    },
    {
      "name": "chest _chest wood_0",
      "primitives": [
        {
          "attributes": {
            "NORMAL": 5,
            "POSITION": 4,
            "TEXCOORD_0": 6
          },
          "indices": 7,
          "material": 1,
          "mode": 4
        }
      ]
    },
    {
      "name": "chest cover_chest Metal_0",
      "primitives": [
        {
          "attributes": {
            "NORMAL": 9,
            "POSITION": 8,
            "TEXCOORD_0": 10
          },
          "indices": 11,
          "material": 0,
          "mode": 4
        }
      ]
    },
    {
      "name": "chest cover_chest wood_0",
      "primitives": [
        {
          "attributes": {
            "NORMAL": 13,
            "POSITION": 12,
            "TEXCOORD_0": 14
          },
          "indices": 15,
          "material": 1,
          "mode": 4
        }
      ]
    }
  ],
  "nodes": [
    {
      "children": [
        1
      ],
      "matrix": [
        1.0,
        0.0,
        0.0,
        0.0,
        0.0,
        2.220446049250313e-16,
        -1.0,
        0.0,
        0.0,
        1.0,
        2.220446049250313e-16,
        0.0,
        0.0,
        0.0,
        0.0,
        1.0
      ],
      "name": "Sketchfab_model"
    },
    {
      "children": [
        2
      ],
      "matrix": [
        0.009999999776482582,
        0.0,
        0.0,
        0.0,
        0.0,
        0.0,
        0.009999999776482582,
        0.0,
        0.0,
        -0.009999999776482582,
        0.0,
        0.0,
        0.0,
        0.0,
        0.0,
        1.0
      ],
      "name": "f71e18b4b4cc420f97417510bc08705f.fbx"
    },
    {
      "children": [
        3
      ],
      "name": "Object_2"
    },
    {
      "children": [
        4,
        7
      ],
      "name": "RootNode"
    },
    {
      "children": [
        5,
        6
      ],
      "name": "chest ",
      "rotation": [
        -0.7071068286895752,
        0.0,
        0.0,
        0.7071067094802856
      ],
      "scale": [
        100.0,
        100.0,
        100.0
      ]
    },
    {
      "mesh": 0,
      "name": "chest _chest Metal_0"
    },
    {
      "mesh": 1,
      "name": "chest _chest wood_0"
    },
    {
      "children": [
        8,
        9
      ],
      "name": "chest cover",
      "rotation": [
        -0.7071068286895752,
        3.134553626878418e-19,
        -3.1221061096231435e-19,
        0.7071067094802856
      ],
      "scale": [
        100.0,
        100.0,
        100.0
      ],
      "translation": [
        -2.0592212677001953,
        16.806983947753906,
        -97.82095336914063
      ]
    },
    {
      "mesh": 2,
      "name": "chest cover_chest Metal_0"
    },
    {
      "mesh": 3,
      "name": "chest cover_chest wood_0"
    }
  ],
  "samplers": [
    {
      "magFilter": 9729,
      "minFilter": 9987,
      "wrapS": 10497,
      "wrapT": 10497
    }
  ],
  "scene": 0,
  "scenes": [
    {
      "name": "Sketchfab_Scene",
      "nodes": [
        0
      ]
    }
  ],
  "textures": [
    {
      "sampler": 0,
      "source": 0
    }
  ]
}
